<?xml version="1.0" encoding="utf-8"?>
<!-- Generator: Adobe Illustrator 25.2.0, SVG Export Plug-In . SVG Version: 6.00 Build 0)  -->
<svg version="1.1" id="Layer_1" xmlns="http://www.w3.org/2000/svg" xmlns:xlink="http://www.w3.org/1999/xlink" x="0px" y="0px"
	 viewBox="0 0 720 720" style="enable-background:new 0 0 720 720;" xml:space="preserve">
<style type="text/css">
	.st0{fill:#FFFFFF;}
</style>
<g>
	<path class="st0" d="M394.74,296.54c-1.97-0.08-3.94-0.17-5.91-0.25c0.06-1.29,0.11-2.58,0.17-4.03c2.09,0.36,3.84,0.66,5.88,1.01
		C394.83,294.43,394.79,295.48,394.74,296.54z"/>
	<path class="st0" d="M454.22,370.15c0,2.13,0,4.26,0,6.64c-1.81,0.09-3.5,0.17-5.33,0.26c-0.09,1.02-0.17,1.91-0.27,3.03
		c-3.35,0-6.66,0-10.16,0c0-0.96,0-1.91,0-3.1c1.58,0,3.08,0,4.82,0c0-2.3,0-4.37,0-6.63c-1.73,0-3.41,0-5.36,0
		c0,2.11,0,4.12,0,6.35c-1.74,0-3.22,0-5.04,0c0-1.97,0-4.05,0-6.34c-2.01,0-3.69,0-5.68,0c0,3.11,0,6.23,0,9.73
		c-1.84,0.09-3.4,0.17-5.19,0.26c-0.17-1.17-0.31-2.13-0.47-3.26c-1.67,0-3.36,0-5.21,0c-0.11,1.02-0.22,1.98-0.35,3.08
		c-1.54,0-2.94,0-4.54,0c-0.2-0.97-0.39-1.92-0.62-3.05c-3.54,0-7.06,0-10.75,0c-0.19,0.98-0.38,1.95-0.59,3.05
		c-6.9,0-13.72,0-20.72,0c-0.06-1.02-0.12-1.91-0.19-3.08c1.72-0.08,3.3-0.16,5.15-0.25c0-4.3,0-8.46,0-12.97
		c1.82-0.09,3.38-0.17,5.28-0.27c0,4.49,0,8.72,0,13.15c1.99,0,3.66,0,5.6,0c0-6.54,0-13.04,0-19.76c1.73,0,3.19,0,4.89,0
		c0.09,0.52,0.3,1.1,0.26,1.66c-0.23,3.08-0.23,5.84,4.24,5.09c0.4-0.07,1.35,1.05,1.46,1.71c0.23,1.39,0.07,2.84,0.07,4.5
		c5.42,0,10.66,0,16.06,0c0-2.05,0-4.06,0-6.4c-1.64,0-3.31,0-5.29,0c0-2.54,0-4.75,0-6.95l-0.11,0.1c1.71,0,3.43,0,5.47,0
		c0-2.18,0-4.26,0-6.72c3.94,0,7.56,0,11.18,0l-0.1-0.11c0,2.2,0,4.41,0,6.75c1.77,0.1,3.25,0.19,5.08,0.29
		c0,1.55,0.06,2.94-0.02,4.33c-0.09,1.6,0.35,2.5,2.18,2.41c2.93-0.15,5.87-0.17,8.81-0.25c0,2.2,0,4.4,0,6.83c2.11,0,3.83,0,5.55,0
		L454.22,370.15z"/>
	<path class="st0" d="M324.2,410.77c14.51,0,28.76,0,43.21,0c0,15.46,0,30.76,0,46.3c-14.34,0-28.68,0-43.21,0
		C324.2,441.68,324.2,426.38,324.2,410.77z M361.13,417.1c-10.4,0-20.52,0-30.57,0c0,11.29,0,22.36,0,33.39c10.33,0,20.37,0,30.57,0
		C361.13,439.33,361.13,428.33,361.13,417.1z"/>
	<path class="st0" d="M335.11,376.94c1.52,0,3.05,0,4.87,0c0.11,2.25,0.22,4.34,0.33,6.59c1.77,0,3.35,0,5.24,0
		c0.1-2.11,0.21-4.19,0.31-6.41c1.69,0,3.2,0,5.06,0c0,2.02,0,4.1,0,6.76c3.98,0,7.62,0,11.26,0l-0.1-0.1c0,1.93,0,3.85,0,6.04
		c-1.84,0.12-3.51,0.23-5.34,0.35c0,2.35,0,4.53,0,6.88c1.72,0,3.31,0,5.26,0c0-2.08,0-4.16,0-6.42c1.93,0,3.51,0,5.36,0
		c0,4.16,0,8.3,0,12.64c-7.04,0-14.14,0-21.44,0c0-1.93,0-3.81,0-5.91c1.66-0.09,3.25-0.18,5.01-0.28c0-2.32,0-4.5,0-7.05
		c-3.15,0-6.2-0.13-9.22,0.11c-0.58,0.04-1.46,1.49-1.49,2.32c-0.17,3.54-0.07,7.1-0.07,10.83c-1.78,0-3.26,0-5.02,0
		c0-1.96,0-3.86,0-6.05c-3.71,0-7.13,0-10.82,0c0-2.35,0-4.41,0-6.76c3.46,0,6.89,0,10.91,0c0-4.72,0-9.17,0-13.62L335.11,376.94z"
		/>
	<path class="st0" d="M432.84,350c0-2.13,0-4.25,0-6.67c-1.96-0.09-3.63-0.17-5.43-0.25c0-1.57,0-2.97,0-4.58
		c12.48,0,24.98,0,37.82,0c0,6.05,0,12.01,0,18.14c1.81,0.09,3.3,0.17,4.95,0.26c0,2.18,0,4.17,0,6.37c-1.55,0.1-3.03,0.19-4.78,0.3
		c-0.11,2.14-0.21,4.22-0.32,6.59c-3.75,0-7.3,0-10.84,0l0.11,0.09c-0.02-2.28-0.05-4.56-0.07-6.84c1.77,0.08,3.55,0.16,5.37,0.24
		c0-7.04,0-13.61,0-20.23c-1.86,0-3.52,0-5.42,0c0,2.22,0,4.23,0,6.58c-1.9,0-3.57,0-5.44,0c0,2.47,0,4.6,0,6.72
		c-1.63,0-3.25,0-5.1,0c-0.11-2.31-0.21-4.4-0.32-6.83c-3.72,0-7.17,0-10.62,0L432.84,350z"/>
	<path class="st0" d="M356.62,356.62c-5.21,0-10.42,0-15.88,0c-0.1-2.19-0.2-4.27-0.31-6.51c-1.78,0-3.37,0-5.33,0
		c0,2.07,0,4.16,0,6.41c-3.79,0-7.22,0-10.86,0c0-6.41,0-12.79,0-19.36c1.65,0,3.24,0,5.12,0c0.09,1.99,0.17,3.99,0.28,6.37
		c10.77,0,21.46,0,32.42,0c0,2.4,0,4.42,0,6.44l0.1-0.08c-1.8,0-3.6,0-5.63,0c0,2.58,0,4.71,0,6.84L356.62,356.62z"/>
	<path class="st0" d="M367.81,350.03c-0.09-2.13-0.19-4.26-0.3-6.74c-1.72,0-3.39,0-5.23,0c0-2.23,0-4.11,0-6.39
		c1.8,0.14,3.5,0.13,5.14,0.43c1.57,0.29,3.08,0.92,5.04,1.53c0.08,1.08,0.2,2.65,0.32,4.17c5.07,1.36,5.49,1.05,6.02-4.56
		c1.46,0,2.94,0,4.61,0c0,5.98,0,11.94,0,18.05c-3.42,0-6.74,0-10.34,0c0-2.16,0-4.16,0-6.58c-1.97,0-3.67,0-5.37,0
		C367.71,349.94,367.81,350.03,367.81,350.03z"/>
	<path class="st0" d="M339.88,329.88c-3.49,0-6.73,0-10.15,0c0-4.3,0-8.45,0-12.85c3.24,0,6.56,0,10.15,0
		C339.88,321.16,339.88,325.38,339.88,329.88z"/>
	<path class="st0" d="M335.21,376.85c-1.74,0-3.47,0-5.55,0c0,2.16,0,4.15,0,6.38c-2,0-3.67,0-5.48,0c0-4.32,0-8.47,0-12.82
		c3.5,0,6.93,0,10.93,0c0,2.14,0,4.34,0,6.54C335.11,376.94,335.21,376.85,335.21,376.85z"/>
	<path class="st0" d="M356.6,370.14c-5.19,0-10.39,0-15.8,0c0-2.12,0-4.1,0-6.62c5.26,0,10.54,0,15.81,0l-0.11-0.11
		c0,2.28,0.01,4.55,0.01,6.83L356.6,370.14z"/>
	<path class="st0" d="M373.21,370.19c-2.09,0-3.6,0-5.34,0c0-2.15,0-4.14,0-6.33c3.31,0,6.62,0,10.11,0c0,4.3,0,8.45,0,12.85
		c-1.44,0-2.92,0-4.77,0C373.21,374.75,373.21,372.67,373.21,370.19z"/>
	<path class="st0" d="M367.81,296.68c3.42,0,6.65,0,10.11,0c0,2.11,0,4.17,0,6.42c-1.67,0.08-3.26,0.17-5.07,0.26
		c-0.13,1.34-0.25,2.61-0.38,4.03c-1.54,0-3.02,0-4.65,0C367.81,303.88,367.81,300.45,367.81,296.68z"/>
	<path class="st0" d="M481.18,370.36c0,3.3,0,6.42,0,9.76c-1.61,0-3.19,0-4.97,0c-0.16-1.01-0.31-1.97-0.47-3.05
		c-1.55-0.08-3.05-0.15-4.73-0.24c0-2.18,0-4.25,0-6.47C474.35,370.36,477.59,370.36,481.18,370.36z"/>
	<path class="st0" d="M475.72,350.04c1.72,0,3.43,0,5.37,0c0,4.4,0,8.7,0,13.2c-1.57,0-3.14,0-5.27,0c0-4.45,0-8.88,0-13.31
		L475.72,350.04z"/>
	<path class="st0" d="M356.54,330.3c-3.45,0-6.89,0-10.59,0c0-2.49,0-4.46,0-6.62c3.46,0,6.87,0,10.47,0c0,2.3,0,4.52,0,6.73
		L356.54,330.3z"/>
	<path class="st0" d="M416.29,356.61c-1.6,0-3.2,0-4.99,0c0-4.3,0-8.41,0-12.79c1.49,0,2.95,0,4.88,0c0,4.24,0,8.57,0,12.89
		C416.19,356.71,416.29,356.61,416.29,356.61z"/>
	<path class="st0" d="M394.61,295.97c0,3.71,0,7.42,0,11.37c-1.85,0-3.59,0-5.68,0c0-3.78,0-7.57,0-11.36l-0.11,0.12
		c1.96,0,3.93,0,5.89,0L394.61,295.97z"/>
	<path class="st0" d="M356.5,370.24c1.72,0,3.45,0,5.54,0c0,2.34,0,4.54,0,6.75l0.1-0.09c-1.72,0-3.44,0-5.54,0
		c0-2.33,0-4.54,0-6.75C356.6,370.14,356.5,370.24,356.5,370.24z"/>
	<path class="st0" d="M362.05,349.97c1.92,0.02,3.83,0.04,5.75,0.06l-0.1-0.09c-0.11,2.09-0.22,4.18-0.36,6.68
		c-1.78,0-3.53,0-5.29,0l0.09,0.11c0-2.28,0-4.56,0-6.84C362.15,349.89,362.05,349.97,362.05,349.97z"/>
	<path class="st0" d="M356.61,363.52c0-2.3,0.01-4.6,0.01-6.9l-0.09,0.11c1.88,0,3.75,0,5.63,0l-0.09-0.11c0,2.13,0,4.26,0,6.79
		c-1.97,0-3.77,0-5.57,0C356.49,363.41,356.61,363.52,356.61,363.52z"/>
	<path class="st0" d="M362.04,376.98c1.7,0,3.4,0,5.28,0c0,2.15,0,4.04,0,6.21c-1.72,0.19-3.49,0.38-5.25,0.58l0.1,0.1
		c-0.01-2.32-0.02-4.65-0.03-6.98C362.14,376.89,362.04,376.98,362.04,376.98z"/>
	<path class="st0" d="M400.32,356.55c0-2.18,0-4.17,0-6.37c1.63,0,3.2,0,4.99,0c0,2.1,0,4.16,0,6.37
		C403.66,356.55,402.16,356.55,400.32,356.55z"/>
	<path class="st0" d="M395.38,350.29c0-2.18,0-4.17,0-6.37c1.81,0,3.55,0,5.53,0c0,2.1,0,4.16,0,6.37
		C399.08,350.29,397.42,350.29,395.38,350.29z"/>
	<path class="st0" d="M388.26,342.04c0-1.23,0-2.35,0-3.59c2.58,0,5.04,0,7.86,0c0,1.18,0,2.35,0,3.59
		C393.53,342.04,391.17,342.04,388.26,342.04z"/>
	<path class="st0" d="M356.43,330.41c1.73,0,3.45,0,5.42,0c0,1.92,0,3.87,0,5.97c-1.69,0-3.28,0-5.3,0c0-2.07,0-4.08,0-6.08
		C356.54,330.3,356.43,330.41,356.43,330.41z"/>
	<path class="st0" d="M361.97,316.94c0,2.04,0,3.85,0,5.87c-1.75,0-3.41,0-5.23,0c0-1.96,0-3.84,0-5.87
		C358.47,316.94,360.06,316.94,361.97,316.94z"/>
	<path class="st0" d="M340.68,336.31c0-2.08,0-3.87,0-5.86c1.56,0,3.02,0,4.66,0c0,1.91,0,3.78,0,5.86
		C343.85,336.31,342.4,336.31,340.68,336.31z"/>
	<path class="st0" d="M475.82,349.93c-1.52,0-3.05,0-4.79,0c0-2.11,0-4.08,0-6.2c1.53,0,2.92,0,4.69,0c0,2.11,0,4.21,0,6.31
		C475.72,350.04,475.82,349.93,475.82,349.93z"/>
	<path class="st0" d="M410.53,338.48c0,1.63,0,3.02,0,4.56c-1.54,0-2.94,0-4.58,0c0-1.43,0-2.89,0-4.56
		C407.36,338.48,408.83,338.48,410.53,338.48z"/>
	<path class="st0" d="M432.92,307.33c0-1.41,0-2.59,0-3.9c1.61,0,3.08,0,4.71,0c0,1.37,0,2.61,0,3.9
		C435.94,307.33,434.4,307.33,432.92,307.33z"/>
	<path class="st0" d="M378.78,303.41c1.58,0,2.98,0,4.61,0c0,1.28,0,2.54,0,3.98c-1.48,0-2.95,0-4.61,0
		C378.78,306.12,378.78,304.93,378.78,303.41z"/>
	<path class="st0" d="M465.25,377.09c-0.07,1.16-0.13,2.03-0.19,3.06c-1.75,0-3.32,0-5.06,0c0-1.05,0-1.99,0-3.06
		C461.69,377.09,463.26,377.09,465.25,377.09z"/>
	<path class="st0" d="M448.72,356.65c1.7,0.07,3.41,0.15,5.6,0.25c0,2.22,0,4.4,0,6.58c-1.86,0-3.73,0-5.59,0
		C448.72,361.2,448.72,358.93,448.72,356.65z"/>
	<path class="st0" d="M352.75,443.74c-5.32,0-10.38,0-15.62,0c0-6.49,0-12.85,0-19.44c5.18,0,10.31,0,15.62,0
		C352.75,430.73,352.75,437.1,352.75,443.74z"/>
	<g>
		<path class="st0" d="M356.35,286.48c0.23,0.76,0.23,1.89,0.23,3.67c0,4.26,0,8.53,0,12.96c-9.11,0-17.94,0-26.93,0
			c0-7.1,0-14.1,0-21.36l-5.51-0.98c0,9.89,0,19.43,0,28.97c12.77,0,25.29,0,38.11,0c0-7.47,0-14.74,0-22.23L356.35,286.48z"/>
		<path class="st0" d="M351,285.53l-15.98-2.83c0,4.46,0,8.89,0,13.49c5.42,0,10.56,0,15.98,0C351,292.53,351,289,351,285.53z"/>
		<path class="st0" d="M481.64,305.84c0-14.37,0-28.56,0-42.9c-80.86,0-161.58,0-242.29,0L481.64,305.84z"/>
		<path class="st0" d="M389.1,296.57l0.1-0.12c-0.03,0-0.07,0-0.1,0C389.1,296.49,389.1,296.53,389.1,296.57z"/>
		<path class="st0" d="M367.6,288.47c0.17,0.49,0.27,1.1,0.27,1.91c1.14-0.4,2.18-0.92,3.16-1.3L367.6,288.47z"/>
		<path class="st0" d="M383.57,291.3c0.25,1.16,0.2,3.08,0.41,4.38c0.03,0.18,0.22,0.33,0.54,0.78c1.4,0,2.99,0,4.58,0
			c0-1.35,0-2.71,0-4.18L383.57,291.3z"/>
		<path class="st0" d="M443.43,301.9c0.09,1.97,0.17,3.74,0.25,5.49c10.35,0,20.54,0,30.75,0L443.43,301.9z"/>
		<path class="st0" d="M410.72,296.11c0.38,0.78,0.39,1.99,0.39,4.06c0,2.41,0,4.82,0,7.19c1.95,0,3.43,0,4.9,0
			c0.14-1.48,0.25-2.75,0.37-3.97c1.87,0,3.47,0,5.24,0c0.09,1.42,0.17,2.69,0.26,3.97c1.8,0,3.37,0,5.28,0c0-2.81,0-5.46,0-8.33
			L410.72,296.11z"/>
		<path class="st0" d="M394.72,293.27c0,1.09,0,2.15,0,3.18c1.76,0,3.52,0,5.6,0c0,3.97,0,7.5,0,10.96c1.85,0,3.36,0,5.29,0
			c0-4.14,0-8.16,0-12.21L394.72,293.27z"/>
		<path class="st0" d="M394.72,296.57c0-0.04,0-0.08,0-0.12c-0.03,0-0.07,0-0.1,0L394.72,296.57z"/>
	</g>
</g>
</svg>
